<svg id="Layer_1" data-name="Layer 1" xmlns="http://www.w3.org/2000/svg" viewBox="0 0 300 300"><defs><style>.cls-1,.cls-2,.cls-3{fill:none;stroke:#eabd26;stroke-linecap:round;}.cls-1{stroke-linejoin:round;}.cls-1,.cls-2{stroke-width:1.83px;}.cls-2,.cls-3{stroke-miterlimit:10;}.cls-3{stroke-width:4.89px;}</style></defs><title>Artboard 4 copy</title><path class="cls-1" d="M168.68,119.43s-4.57,5.49-8,6.2a70.64,70.64,0,0,0-8.28,2.9l-2.68,1.09c-6.25,1.92-9.92,6.2-13.43,11.08l-.87,1.24c-2.05,2.91-4.23,5.89-5.63,7.55-.67.79-1.17,1.27-1.39,1.31-1.32.2-6.72,7.64-5.81,8.25s5.81,7.64,10.9,2.85,9.37-10.19,8.25-11.31-3.14-6.48-7.74-3.57l-4.21,2.46"/><path class="cls-1" d="M132.23,163.56s11,.48,17.72-5.94c1.68-1.6,3-3,4-4.12l.57-.66a11.84,11.84,0,0,1,8.07-5.7,13,13,0,0,0,1.27-.61,4.12,4.12,0,0,0,.88-.62c1.22-1.22,12.43-1.94,12.94-1.22s14.46,11.71,17.62,16.2,29.37,21.09,29.88,21.8"/><path class="cls-1" d="M183.26,177.28s.21.49.55,1.24c.17.38.38.82.6,1.29,1.8,3.68,3.63,6.74,7.07,8.56l1.26.93c5.78,4.27,15.15,11.27,16.18,11.19"/><path class="cls-1" d="M170.62,201.36c2.15.47,4,1.69,6.13,2.95.35.26.67.52,1,.77.85.73,1.54,1.37,2,1.63,1.12.71,11.71,10.7,13.65,10.8"/><path class="cls-1" d="M148.64,212.17c4,.66,8.24,1.27,11.81,2.59a6.13,6.13,0,0,0,1.26.84c3.41,2,12.39,6.31,12.39,7.41"/><path class="cls-1" d="M145.06,225.56s-10.59-5.81-14.36-6.93S112.57,208.35,110.84,208,87.51,194.59,87.2,191.95a111.39,111.39,0,0,1-12.47,2.18"/><path class="cls-1" d="M117.66,115.62s1,20-2.14,25.91S92.19,189.7,87.2,191.95"/><path class="cls-1" d="M117.66,222.91a12.48,12.48,0,0,1,8.91-5.7"/><path class="cls-1" d="M98.81,214.35s6.42-6.57,10.45-7"/><path class="cls-1" d="M88.94,202.13S92.8,198,94.17,198"/><path class="cls-2" d="M35.65,194.28s-39-18.34-45-21.39-13.45-6.52-16.5-7.95"/><path class="cls-2" d="M85.06,103.74s-6,22.3-11.61,30.4-16,27.2-18.49,31.78-9.88,19.29-10.63,20.7"/><path class="cls-2" d="M191.94,157.2s22.19,3.27,27.08-3,9.78-11.41,10.39-11.2"/><path class="cls-3" d="M306,96.86c-8.8,3.91-51.93,11.73-75.32,18q-1.75.47-3.35.93c-11.78,4.15-24,.49-36.42,3.23l-4,.05c-3.81,0-6.95.05-7.46.11-1,.11-4.3-1.23-7.16-.62A5.57,5.57,0,0,0,171,119c-1.85.9-3.07.29-4.57-.54l-.86-.38-1.47-.66c-3.51-1.18-4.12-5.46-8.12-6.09q-.86-.4-1.71-.75c-.56-.23-1.12-.45-1.67-.64s-1.08-.37-1.59-.53c-4.47-2.34-8.75.11-12.86,1.54l-2,.64a56.4,56.4,0,0,1-8.27,2.21c-2.06.23-5.45.84-8.45,1.45l-1.74.36a13.54,13.54,0,0,1-9.05-.82L106.9,114c-10.86-5-51-24.79-51-24.79s-10.11-3.06-11.55-4.58-5.87-6.26-10.45-6.42"/><path class="cls-3" d="M310.59,158.43c-8.45-1.32-50.93,7.13-56.13,7.23s-25.85,14.16-29.23,16c-.48.2-.37.62,0,1.12a6.91,6.91,0,0,0,.73.8c3.64,1.74,1.81,6,1.19,9.23-.11.46-.21.92-.3,1.38-.71,3.67-6.52,8.56-16.5,6.21,2.65,1.83.41,10.39-1.22,14.26s-7,4.38-15.79,2.85c.21,2.07-2.42,5.43-5,7.41a12.21,12.21,0,0,1-1.11.75c-1,1.21-2.83.6-4,.74-.36-.05-.73-.13-1.12-.22a43.6,43.6,0,0,1-8-3.18c-.74-.36-.71,4.58-4.18,7.95s-22.51-2.34-24.85-4.59c-2-.2-14.06,5.3-20.58,5.4s-8.76-4.69-6.82-8.86c-.2-.51-4.28,2.44-9.58,2.14a8.56,8.56,0,0,1-8.11-9.81.83.83,0,0,0-1.16-.89c-5.26,2.41-5.76,2.18-8.65,1.43C87,215,85,208.65,88.94,202.13c-.81.1-.51,2.34-5.2.51,0,0-3.46-3.67-3.06-5.5-5.5-2-3.67-3.46-10.39-3.46s-13.65.81-14.87-1-8.44-5.83-10.48-6c0,0-5.41,10.21-5.72,10.62s-3-1.53-3-1.53l-6.52,13S13.86,198.54,10.81,198s-20.07-14.5-25.67-15.73S-35,172.8-35,172.8"/></svg>