<svg id="Layer_1" data-name="Layer 1" xmlns="http://www.w3.org/2000/svg" viewBox="0 0 300 300"><defs><style>.cls-1,.cls-2{fill:none;stroke:#eabd26;stroke-linecap:round;stroke-linejoin:round;}.cls-1{stroke-width:1.81px;}.cls-2{stroke-width:4.83px;}</style></defs><title>Artboard 4 copy 2</title><path class="cls-1" d="M29.72,100.91l147.77-28.3.51-.07c3.56-.34,41.49-3.34,61.05,20,20.54,24.47,38.67,61.93,39.87,77.63,1.16,15,7.84,13.33,6.7,46.2a5.47,5.47,0,0,1-5.18,5.27C244.36,223.49,51.21,210.13,24,208.39a5.47,5.47,0,0,1-4.93-4c-4.92-18.2-.1-85.64,6.75-100.35A5.48,5.48,0,0,1,29.72,100.91Z"/><path class="cls-1" d="M194.89,87.17c11.08,7.45,47.93,84,43.9,85.39s-87.4,1.41-87.4,1.41"/><line class="cls-1" x1="112.88" y1="173.16" x2="17.07" y2="173.96"/><path class="cls-1" d="M194.89,87.17c22.15,1,56.55,70.79,56.85,84.48,15.31,0,27.28-.43,27.28-.43"/><path class="cls-1" d="M284.77,193.87s-9.37,9.5-27.1-4-41.38-16.39-41.38-16.39"/><path class="cls-1" d="M24.37,111.23S183.21,75.69,194.89,87.17"/><path class="cls-1" d="M205.29,91.66c11.87-1.79,27.83-2.28,35.17,2.55"/><path class="cls-1" d="M228.48,168.33h-62V104.49l33.23-3.42S225.66,152.42,228.48,168.33Z"/><polyline class="cls-1" points="113.7 214.22 116.1 111.23 151.39 106.1 149.94 216.42"/><polygon class="cls-1" points="109.63 111.23 68.78 117.58 67.17 168.32 107.84 168.32 109.63 111.23"/><polygon class="cls-1" points="61.12 168.32 28.7 168.32 30.71 123.22 63.14 118.38 61.12 168.32"/><path class="cls-1" d="M25.79,104s-12.39-4.54-14,9.56-4.23,93-3.22,93h9.67"/><path class="cls-2" d="M-44,117.06l62.23-13.27s4.75-1.27,7.55.2"/><line class="cls-1" x1="8.56" y1="206.59" x2="-64.5" y2="199.98"/><line class="cls-1" x1="8.91" y1="173.96" x2="0.25" y2="173.96"/><path class="cls-2" d="M282.25,221.61s-8.77,7-42.15,6.07-215.69-14.8-215.69-14.8-4.2-1.73-5.39-8.55"/><path class="cls-2" d="M20.84,211.31c-16.72,2.3-33-1.33-49.65-2.43L-38,208-66,205.15"/><path class="cls-2" d="M19,204.34c-4.92-18.2-.1-85.64,6.75-100.35a5.48,5.48,0,0,1,3.93-3.08l147.77-28.3.51-.07c3.56-.34,41.49-3.34,61.05,20,20.54,24.47,38.67,61.93,39.87,77.63,1.16,15,7.84,13.33,6.7,46.2-.1,2.84-.85,3.62-3.37,5.27"/></svg>